<?xml version="1.0" encoding="iso-8859-1"?>
<!-- Generator: Adobe Illustrator 16.0.0, SVG Export Plug-In . SVG Version: 6.00 Build 0)  -->
<!DOCTYPE svg PUBLIC "-//W3C//DTD SVG 1.1//EN" "http://www.w3.org/Graphics/SVG/1.1/DTD/svg11.dtd">
<svg version="1.1" id="Capa_1" xmlns="http://www.w3.org/2000/svg" xmlns:xlink="http://www.w3.org/1999/xlink" x="0px" y="0px"
	 width="42.594px" height="42.594px" viewBox="0 0 42.594 42.594" style="enable-background:new 0 0 42.594 42.594;"
	 xml:space="preserve">
<g>
	<g id="Layer_36_52_">
		<path d="M13.493,0v22.427l-7.477,4.83L3.002,29.09l0.876,10.917l9.615-1.549v0.692h13.22l1.871,3.418l8.068,0.025l0.625-3.443
			h2.314V0H13.493z M14.172,28.164l-2.887,3.972l0.809,0.588l1.398-1.924v6.646l-8.705,1.402l-0.739-9.224l2.056-1.25l0.008,0.012
			L6.555,28.1l7.827-4.761l8.02,2.081l-0.035,1.604l-7.85,0.938C14.38,27.979,14.254,28.052,14.172,28.164z M17.267,32.658V28.64
			l5.651-0.675c0.246-0.029,0.436-0.236,0.439-0.484l0.051-2.436c0.006-0.23-0.148-0.438-0.375-0.495l-5.768-1.497V3.774h18.553
			v25.323l-1.822-0.623l-2.689-0.181l-0.359-5.613c1.102-0.638,1.854-1.811,1.854-3.174c0-2.04-1.66-3.699-3.699-3.699
			s-3.699,1.659-3.699,3.699c0,1.389,0.777,2.581,1.912,3.211l0.057,8.946l-3.289-3.515l-2.229,2.605l1.146,1.902h-5.731V32.658z
			 M29.1,17.455c-1.145,0-2.076,0.931-2.076,2.076c0,0.367,0.107,0.706,0.275,1.004l0.01,1.304
			c-0.707-0.538-1.166-1.378-1.166-2.333c0-1.631,1.326-2.957,2.957-2.957s2.957,1.326,2.957,2.957c0,0.955-0.459,1.799-1.164,2.339
			l-0.074-1.179c0.219-0.327,0.357-0.712,0.357-1.135C31.176,18.386,30.246,17.455,29.1,17.455z M35.818,41.592l-6.643-0.021
			l-3.463-6.33l-2.637-4.383l1.035-1.209l2.525,2.697c0.193,0.206,0.459,0.316,0.73,0.316c0.125,0,0.25-0.023,0.369-0.071
			c0.383-0.151,0.635-0.522,0.631-0.935l-0.07-11.63l1.475-0.057l0.537,8.387c0.033,0.502,0.432,0.9,0.932,0.936l2.559,0.172
			l2.646,0.904l1.262,0.85L35.818,41.592z"/>
	</g>
</g>
<g>
</g>
<g>
</g>
<g>
</g>
<g>
</g>
<g>
</g>
<g>
</g>
<g>
</g>
<g>
</g>
<g>
</g>
<g>
</g>
<g>
</g>
<g>
</g>
<g>
</g>
<g>
</g>
<g>
</g>
</svg>
